<svg xmlns="http://www.w3.org/2000/svg" viewBox="0 0 48 48" width="24" height="24">
  <path fill="#4285F4" d="M24 9.5c3.54 0 6.71 1.22 9.21 3.6l6.85-6.85C35.9 2.38 30.47 0 24 0 14.62 0 6.51 5.38 2.56 13.22l7.98 6.19C12.43 13.72 17.74 9.5 24 9.5z"/>
  <path fill="#34A853" d="M24 9.5c3.54 0 6.71 1.22 9.21 3.6l6.85-6.85C35.9 2.38 30.47 0 24 0 14.62 0 6.51 5.38 2.56 13.22l7.98 6.19C12.43 13.72 17.74 9.5 24 9.5z"/>
  <path fill="#FBBC05" d="M46.98 24.55c0-1.66-.15-3.26-.43-4.8H24v9.09h12.94c-.56 2.93-2.24 5.41-4.75 7.07l7.98 6.19c4.65-4.29 7.81-10.62 7.81-17.55z"/>
  <path fill="#EA4335" d="M10.54 28.28l-7.98-6.19C.99 25.62 0 29.7 0 34.5c0 6.47 2.38 12.38 6.28 16.96l7.98-6.19c-2.24 1.76-5.03 2.93-7.74 2.93-3.54 0-6.71-1.22-9.21-3.6z"/>
</svg>