<?xml version="1.0" encoding="UTF-8"?>
<svg version="1.1" xmlns="http://www.w3.org/2000/svg" width="512" height="512">
<path d="M0 0 C2.60513439 37.75440923 2.60513439 37.75440923 -3.1640625 45.59765625 C-6.15816938 48.62426311 -9.47305477 50.89144405 -13.19677734 52.93408203 C-15.90464527 54.5347524 -17.87065411 56.70883853 -20 59 C-20.66 59.61359375 -21.32 60.2271875 -22 60.859375 C-54.98554775 92.04102561 -76.7947753 143.0782748 -78.17700195 188.20507812 C-78.20303462 189.64704511 -78.22325434 191.08912634 -78.23828125 192.53125 C-78.25297203 193.7093071 -78.25297203 193.7093071 -78.26795959 194.91116333 C-78.81207769 249.89790291 -62.69222657 301.66322669 -24.5 342.3125 C-22.52685441 344.43363151 -20.64978073 346.57581042 -18.8125 348.8125 C-15.56670945 352.63756761 -11.83308754 355.77968496 -8 359 C-7.15953125 359.73992187 -6.3190625 360.47984375 -5.453125 361.2421875 C25.91944393 388.36819323 65.06606433 403.94120244 106 409 C107.58941406 409.19722656 107.58941406 409.19722656 109.2109375 409.3984375 C163.20039248 414.87134116 217.9793929 396.80431539 259.81494141 362.83740234 C278.58642323 347.05257863 294.94184119 328.42068131 307 307 C307.58128662 305.97664551 307.58128662 305.97664551 308.17431641 304.93261719 C333.73540954 259.55494502 342.44740725 203.70672619 329 153 C320.35671093 123.06177119 307.88352893 96.19462589 288 72 C287.54689453 71.44006348 287.09378906 70.88012695 286.62695312 70.30322266 C278.53007036 60.3376149 269.60392911 50.04543337 258.83496094 42.89990234 C256.93543031 41.31015352 256.11186845 40.42477223 255.47628784 38.01142883 C255.30575394 35.57329643 255.32498672 33.20420571 255.4140625 30.76171875 C255.42255219 29.88095169 255.43104187 29.00018463 255.43978882 28.09272766 C255.47327844 25.28972125 255.54854546 22.48963115 255.625 19.6875 C255.65510552 17.78324478 255.68248031 15.8789443 255.70703125 13.97460938 C255.7730548 9.3152889 255.87654272 4.65813821 256 0 C261.3019034 1.95545925 265.36159331 4.90723702 269.875 8.25 C270.71780518 8.87406738 271.56061035 9.49813477 272.42895508 10.14111328 C279.80191767 15.69296318 286.56274321 21.6967845 293.13330078 28.16845703 C295.0799548 30.07844898 297.05224356 31.95931384 299.02734375 33.83984375 C308.39102993 42.85552873 316.48505386 52.4005043 324 63 C324.45068848 63.63260742 324.90137695 64.26521484 325.36572266 64.91699219 C346.62535415 95.04338762 360.36023507 129.57039619 366 166 C366.27602051 167.76404175 366.27602051 167.76404175 366.55761719 169.5637207 C368.1255324 180.65022282 368.39829256 191.62603243 368.375 202.8125 C368.37478851 203.7537674 368.37457703 204.69503479 368.37435913 205.66482544 C368.33915055 221.424755 367.2772236 236.54022952 364 252 C363.81808105 252.88510254 363.63616211 253.77020508 363.44873047 254.68212891 C355.69501733 291.3996677 339.0389891 326.20696904 315 355 C314.52594727 355.57556641 314.05189453 356.15113281 313.56347656 356.74414062 C303.12641382 369.39132286 291.95648541 380.90854024 279 391 C278.06414062 391.76441406 277.12828125 392.52882813 276.1640625 393.31640625 C244.67621184 418.53097047 205.76373559 434.76217104 166 441 C164.84443604 441.18256348 163.68887207 441.36512695 162.49829102 441.55322266 C151.22828263 443.15355387 140.0592251 443.39916633 128.6875 443.375 C127.72155914 443.37445618 126.75561829 443.37391235 125.76040649 443.37335205 C101.68698291 443.31122837 79.08217963 439.97084367 56 433 C55.16484863 432.74911621 54.32969727 432.49823242 53.46923828 432.23974609 C20.85437948 422.19496387 -9.08309584 404.21088189 -34 381 C-35.39144666 379.78661781 -36.78708639 378.57802197 -38.1875 377.375 C-45.62307066 370.8614401 -51.83520505 363.72325512 -58 356 C-58.86499989 354.94848966 -59.73090715 353.8977252 -60.59765625 352.84765625 C-84.5840558 323.47531075 -100.60201465 287.9327346 -108.25 250.875 C-108.40122314 250.14901611 -108.55244629 249.42303223 -108.70825195 248.67504883 C-111.60300327 233.64228323 -112.38085815 218.58250368 -112.3125 203.3125 C-112.30926727 202.00247513 -112.30926727 202.00247513 -112.30596924 200.66598511 C-112.08685433 145.13555412 -92.74455394 90.05286661 -56 48 C-55.34386719 47.23429687 -54.68773437 46.46859375 -54.01171875 45.6796875 C-42.780303 32.86191359 -30.73265855 21.09607787 -17 11 C-15.96359375 10.2265625 -14.9271875 9.453125 -13.859375 8.65625 C-2.12952899 0 -2.12952899 0 0 0 Z " fill="#000000" transform="translate(128,53)"/>
<path d="M0 0 C3.77305428 2.86752125 6.64122211 5.61057363 7.49117374 10.46740723 C7.64077809 12.99167983 7.65809671 15.48698828 7.63293457 18.015625 C7.63917453 18.98023651 7.6454145 19.94484802 7.65184355 20.93869019 C7.66778556 24.1677095 7.6551642 27.39597522 7.64257812 30.625 C7.64799868 32.94124797 7.65512097 35.25749249 7.66381836 37.57373047 C7.68206229 43.86291955 7.67497957 50.15184633 7.66230202 56.44104004 C7.65218001 63.02059642 7.66156548 69.60013024 7.66784668 76.1796875 C7.67639149 87.93710703 7.66315549 99.69441615 7.64280933 111.45181656 C7.62493868 122.10856185 7.62804291 132.76513285 7.64648438 143.421875 C7.6678985 155.80218625 7.67585424 168.18238638 7.66403532 180.56271362 C7.65779688 187.1144428 7.65697453 193.66605195 7.67018127 200.21777344 C7.68172961 206.37709514 7.67373215 212.53608745 7.65060425 218.69537354 C7.64531179 220.95688327 7.64684005 223.21842069 7.65565491 225.47991943 C7.66657232 228.56511315 7.6528919 231.64924885 7.63293457 234.734375 C7.64185746 235.63106903 7.65078034 236.52776306 7.65997362 237.45162964 C7.59124432 242.92261822 6.75331524 246.0270102 3.125 250.375 C-0.69430172 254.00333663 -3.75779006 254.68500458 -8.875 254.875 C-13.97462611 254.6980613 -17.024744 253.92908246 -20.875 250.375 C-23.91593928 246.91462081 -24.99762023 243.94950307 -25.00922108 239.37094498 C-25.01367892 238.55417416 -25.01813676 237.73740334 -25.02272969 236.89588189 C-25.02254533 235.99891335 -25.02236097 235.10194481 -25.02217102 234.17779541 C-25.02584771 233.22461984 -25.0295244 232.27144428 -25.0333125 231.2893846 C-25.04436462 228.08126403 -25.04819576 224.87317584 -25.05200195 221.66503906 C-25.0582654 219.37056373 -25.0649121 217.07608941 -25.07191467 214.78161621 C-25.08933433 208.53772486 -25.0998789 202.29384116 -25.1081202 196.04993153 C-25.1132679 192.15073577 -25.11934371 188.2515424 -25.12563133 184.35234833 C-25.14250142 173.55552021 -25.15713662 162.75869578 -25.16438007 151.96185684 C-25.16628994 149.16044361 -25.16821028 146.35903039 -25.17016602 143.55761719 C-25.17064976 142.86134601 -25.1711335 142.16507483 -25.1716319 141.44770452 C-25.17993227 130.16848475 -25.2052698 118.88937103 -25.23774669 107.61019757 C-25.27082246 96.02856765 -25.28849653 84.44699709 -25.29202431 72.86531997 C-25.29437749 66.36322939 -25.30337306 59.86130645 -25.32848549 53.35926056 C-25.35172728 47.24269557 -25.35601495 41.12640907 -25.34572411 35.0098114 C-25.34522771 32.76483485 -25.35157869 30.51984477 -25.36528015 28.27490997 C-25.38294156 25.20965124 -25.37592071 22.14539819 -25.36274719 19.08013916 C-25.37371644 18.19209351 -25.38468568 17.30404786 -25.39598733 16.38909173 C-25.33549685 10.55778251 -24.27190524 7.15422463 -20.875 2.375 C-14.67399163 -2.46178653 -7.21608483 -3.68546822 0 0 Z " fill="#000000" transform="translate(264.875,17.625)"/>
</svg>
