<?xml version="1.0" encoding="UTF-8"?>
<svg version="1.1" xmlns="http://www.w3.org/2000/svg" width="1280" height="1280">
<path d="M0 0 C3.9871084 2.58204045 5.84339815 6.03738817 7.25 10.5 C7.89009905 15.80367784 7.18564357 19.0520552 4.25 23.5 C2.08883644 25.81214305 -0.14973403 28.01967056 -2.42578125 30.21875 C-5.07062657 32.81469902 -7.47801796 35.54645546 -9.88671875 38.359375 C-12.03886777 40.83186486 -14.26980719 43.22271357 -16.5 45.625 C-21.74392843 51.38303906 -26.54200656 57.42310703 -31.28173828 63.59912109 C-32.77546035 65.53296213 -34.29003039 67.44890428 -35.80859375 69.36328125 C-88.75528089 136.62363971 -117.50379415 218.98254396 -125.75 303.5 C-125.83475586 304.35513184 -125.91951172 305.21026367 -126.00683594 306.09130859 C-126.48303196 311.22807382 -126.67222681 316.34283294 -126.75 321.5 C-126.77046387 322.75055176 -126.79092773 324.00110352 -126.81201172 325.28955078 C-128.18057039 419.14697696 -103.73039173 510.34941289 -50.75 588.5 C-49.99420654 589.61713379 -49.99420654 589.61713379 -49.22314453 590.75683594 C-42.36240973 600.83472623 -34.98808192 610.38314935 -27.19287109 619.75292969 C-25.93009237 621.28193892 -24.69146681 622.83083048 -23.45703125 624.3828125 C-8.80904729 642.79585049 8.38658786 661.28519304 26.97265625 675.71875 C29.21214439 677.47039081 31.28589065 679.3228065 33.375 681.25 C55.02391328 700.52694539 80.6707045 716.97501316 106.25 730.5 C107.33087891 731.07524414 108.41175781 731.65048828 109.52539062 732.24316406 C194.92050092 777.30885871 293.15059675 792.9501806 446.51708984 764.61523438 C471.98610416 756.66208492 496.69509379 746.81730068 520.36962891 734.47705078 C522.32719532 733.4598889 524.29398465 732.46217549 526.26171875 731.46484375 C555.14972029 716.67187184 581.71627488 697.66442687 606.25 676.5 C606.98992188 675.86191406 607.72984375 675.22382812 608.4921875 674.56640625 C610.42166558 672.88876768 612.33666983 671.19602924 614.25 669.5 C614.97654785 668.85828857 615.7030957 668.21657715 616.45166016 667.55541992 C622.64602712 662.03846339 628.58630996 656.31567478 634.4375 650.4375 C635.28763672 649.59123047 636.13777344 648.74496094 637.01367188 647.87304688 C641.96859277 642.91047359 646.69340823 637.82855561 651.25 632.5 C652.17542108 631.4516553 653.10242226 630.40470261 654.03125 629.359375 C713.31201213 561.92398849 749.34052469 475.04883283 760.484375 310.96142578 C754.55751738 223.42914732 724.10504331 139.05101579 670.25 69.5 C669.61263916 68.66758789 669.61263916 68.66758789 668.96240234 67.81835938 C663.42275249 60.58631559 657.72752635 53.64107104 651.52734375 46.9609375 C649.49097846 44.76040554 647.51738147 42.52271297 645.5625 40.25 C643.38611947 37.73722342 641.13708028 35.37548022 638.75 33.0625 C633.09209953 27.49420429 627.7011088 21.9359032 626.875 13.8125 C626.95846878 8.78582488 628.89206734 5.17934687 632.25 1.5 C636.96416763 -1.29358082 640.81102976 -2.09334221 646.25 -1.5 C652.54534726 0.82372377 656.60610572 5.48444213 661.1875 10.1875 C661.96029297 10.96544922 662.73308594 11.74339844 663.52929688 12.54492188 C668.2945569 17.37463174 672.8393599 22.3460943 677.25 27.5 C678.13916311 28.52097253 679.02847453 29.54181592 679.91796875 30.5625 C686.51949896 38.25916778 692.69438428 46.20337191 698.69091797 54.37890625 C700.26488382 56.52024908 701.852747 58.65079367 703.44140625 60.78125 C711.71446528 71.95849485 719.15879185 83.54173184 726.25 95.5 C726.78093262 96.39283691 727.31186523 97.28567383 727.85888672 98.20556641 C765.10747457 161.29826416 788.21265903 234.19744723 792.25 307.5 C792.30494629 308.46953613 792.35989258 309.43907227 792.41650391 310.43798828 C793.05367276 322.11941734 793.51168179 333.80053743 793.25 345.5 C793.23211426 346.41604004 793.21422852 347.33208008 793.19580078 348.27587891 C791.41189645 430.60892317 768.99211548 510.46907332 727.25 581.5 C726.78094238 582.30276367 726.31188477 583.10552734 725.82861328 583.93261719 C705.01270892 619.38786661 678.45525688 651.30227758 649.5 680.375 C648.70779053 681.17188232 647.91558105 681.96876465 647.09936523 682.78979492 C642.31051073 687.56562398 637.39034429 692.10663504 632.25 696.5 C631.12042225 697.48490748 629.99148903 698.47055478 628.86328125 699.45703125 C606.72040861 718.66806034 582.62725421 735.82248095 557.25 750.5 C556.59257813 750.88091797 555.93515625 751.26183594 555.2578125 751.65429688 C515.40266171 774.59773138 472.18256304 792.3384664 427.25 802.5 C426.15236328 802.74943359 425.05472656 802.99886719 423.92382812 803.25585938 C410.67036867 806.22305179 397.37783867 808.78753523 383.9375 810.75 C382.91567627 810.90098145 381.89385254 811.05196289 380.84106445 811.20751953 C359.85945446 814.09984808 338.91038543 814.8772276 317.75 814.8125 C315.83945831 814.80926727 315.83945831 814.80926727 313.89031982 814.80596924 C294.49860349 814.7534221 275.46276458 814.29121859 256.25 811.5 C255.54284851 811.3981842 254.83569702 811.29636841 254.1071167 811.19146729 C234.25887847 808.31566852 214.62294153 804.74581758 195.25 799.5 C193.78361084 799.10409668 193.78361084 799.10409668 192.28759766 798.70019531 C131.23951132 781.99355864 73.86482545 753.92290696 24.25 714.5 C23.61175293 713.9932373 22.97350586 713.48647461 22.31591797 712.96435547 C14.62403296 706.83479824 7.07624589 700.6178539 -0.125 693.9140625 C-2.16946642 692.03388356 -4.23967539 690.22051829 -6.34765625 688.4140625 C-11.32986576 684.06733293 -16.01296384 679.42310131 -20.68579102 674.74951172 C-22.17641615 673.26106763 -23.67487017 671.78082723 -25.17382812 670.30078125 C-30.73378949 664.7724503 -35.89846993 659.10314756 -40.77270508 652.94482422 C-42.75770296 650.49047568 -44.84385069 648.17942543 -47 645.875 C-53.41598684 638.81295892 -59.05924452 631.14782417 -64.75 623.5 C-65.29736816 622.7668457 -65.84473633 622.03369141 -66.40869141 621.27832031 C-128.03492654 538.41366517 -159.8949851 435.99170328 -153.9375 270.32421875 C-140.60881189 180.11916991 -101.69778064 92.10443155 -39.70703125 24.640625 C-37.94407494 22.71228157 -36.25046051 20.7437201 -34.5625 18.75 C-31.05587007 14.74006554 -27.3555232 10.9254193 -23.625 7.125 C-23.0266333 6.5052832 -22.4282666 5.88556641 -21.81176758 5.24707031 C-15.65404403 -0.95771101 -8.43955467 -4.09300291 0 0 Z " fill="#FEFEFD" transform="translate(322.75,320.5)"/>
<path d="M0 0 C3.98174566 1.99087283 6.72044197 4.16074436 9 8 C9.83951951 10.76768767 10.12554734 13.24678183 10.1276505 16.1319226 C10.13066647 16.9535554 10.13368244 17.77518819 10.1367898 18.62171894 C10.13413559 19.97028655 10.13413559 19.97028655 10.13142776 21.34609795 C10.1334804 22.307912 10.13553303 23.26972605 10.13764787 24.26068598 C10.14333706 27.50850995 10.14185826 30.75629177 10.14044189 34.00411987 C10.14302442 36.34618304 10.14603726 38.68824577 10.1494453 41.03030789 C10.15668252 46.80795382 10.15921855 52.58558868 10.15977435 58.36323881 C10.16068759 65.28190162 10.16735387 72.20055586 10.17412117 79.11921498 C10.19018664 95.84096698 10.19608478 112.56271808 10.20086992 129.28447642 C10.20320501 137.19233246 10.20680753 145.10018777 10.2105653 153.00804324 C10.22340039 180.06924922 10.23412033 207.13045479 10.2375679 234.19166374 C10.23778954 235.89060651 10.23801132 237.58954927 10.23823325 239.28849203 C10.23845389 240.99156809 10.23867438 242.69464416 10.2388947 244.39772022 C10.23933726 247.81446322 10.23978437 251.23120622 10.24023438 254.64794922 C10.24034377 255.49510377 10.24045316 256.34225832 10.24056586 257.21508422 C10.24419798 284.69545326 10.26012408 312.17579594 10.28342474 339.65615488 C10.30800606 368.69991532 10.32173992 397.74366069 10.32293582 426.78743184 C10.32310728 429.97399148 10.32332271 433.16055111 10.32357025 436.34711075 C10.3236539 437.52406915 10.3236539 437.52406915 10.32373925 438.72480449 C10.32489108 451.36542298 10.33592414 464.00601447 10.35045731 476.64662384 C10.36480469 489.34492081 10.36806923 502.04318308 10.36001733 514.74148594 C10.35594674 521.62414421 10.35670614 528.50671936 10.37107468 535.38936615 C10.38374128 541.68471276 10.38268014 547.97989916 10.37048396 554.27524532 C10.36851436 556.55785688 10.37166308 558.84047951 10.38032833 561.12307547 C10.3913315 564.21632057 10.38399628 567.30899131 10.3719368 570.40221977 C10.38332959 571.74376388 10.38332959 571.74376388 10.39495254 573.11240989 C10.35224576 578.15707811 9.80842096 581.63414992 7 586 C1.82726835 590.6680749 -1.39640527 591.36791117 -8.23828125 591.26953125 C-12.21532391 590.88138989 -14.14656864 589.78383547 -17 587 C-20.89125541 581.20723555 -21.57510092 576.02758108 -21.50057125 569.18012142 C-21.5088425 567.73345923 -21.5088425 567.73345923 -21.51728085 566.25757155 C-21.5308802 563.02463853 -21.51597592 559.79247375 -21.50120544 556.55955505 C-21.50509813 554.21887421 -21.5107383 551.87819574 -21.51797634 549.53752285 C-21.53120429 543.77872199 -21.52581819 538.02014793 -21.51258337 532.26135199 C-21.49777033 525.36204261 -21.50620567 518.46281113 -21.51536357 511.56349891 C-21.53255388 498.0462525 -21.52701586 484.52908721 -21.51200638 471.01184247 C-21.49895661 459.18333921 -21.49375825 447.3548641 -21.49632454 435.52635384 C-21.49648495 434.741861 -21.49664537 433.95736817 -21.49681065 433.14910282 C-21.49747423 429.96463289 -21.49817664 426.78016297 -21.49893599 423.59569306 C-21.50596042 393.72167155 -21.49046716 363.84769959 -21.46431253 333.97369069 C-21.44119513 307.4281643 -21.43581008 280.88269239 -21.44604492 254.3371582 C-21.4486469 247.53919954 -21.4512319 240.74124087 -21.45364285 233.94328213 C-21.45394029 233.10639166 -21.45423774 232.26950118 -21.4545442 231.4072504 C-21.46215746 209.22981223 -21.45574843 187.05237854 -21.44494683 164.87494236 C-21.44379901 162.48891156 -21.44265583 160.10288075 -21.44152 157.71684994 C-21.44076475 156.13400266 -21.43999911 154.55115538 -21.43922299 152.9683081 C-21.43356261 141.1460929 -21.43489599 129.32389181 -21.43945122 117.50167656 C-21.44455638 104.06113987 -21.43871775 90.62065596 -21.41855692 77.18013244 C-21.40853109 70.31960739 -21.40321023 63.45916066 -21.41144943 56.59863091 C-21.41848756 50.32250059 -21.41174526 44.046544 -21.3938458 37.77043665 C-21.3897892 35.49600701 -21.39082135 33.22156162 -21.39736467 30.94713777 C-21.40548146 27.86256162 -21.39524288 24.77857557 -21.38031673 21.69403744 C-21.38705439 20.80504945 -21.39379204 19.91606146 -21.40073386 19.00013444 C-21.34982191 13.58281892 -20.57910879 9.79537925 -18 5 C-12.27229733 -0.30860248 -7.63791874 -0.78752552 0 0 Z " fill="#FEFEFD" transform="translate(639,145)"/>
</svg>
